<?xml version="1.0" encoding="UTF-8"?>
<svg xmlns="http://www.w3.org/2000/svg" id="a" width="512" height="434.709" viewBox="0 0 512 434.709">
  <defs>
    <style>.f{fill:#ef3e42;}.g{fill:#233e99;}</style>
  </defs>
  <path id="b" class="f" d="M55.3799,417.417c16.6253,17.3652,41.9557,21.8225,63.0516,12.596l16.8703-54.7746c67.2191,55.5901,166.7438,54.2799,232.3763-6.6725,49.7423-46.2434,66.7688-114.4298,50.1659-175.6761,18.1987-8.8564,31.6996-25.3838,36.4243-45.2317,.2764-1.1233,.5481-2.2286,.7666-3.3919,.2361-1.306,.4546-2.6075,.6061-3.9447,.2987-2.3312,.4859-4.7068,.5304-7.1092,0-.2986,.0579-.5704,.0579-.8737,0-.0624-.0043-.1114-.0043-.156,0-.0757,.0043-.1606,.0043-.2228,0-3.3963-.3297-6.6858-.8336-9.9484-.0313-.2451-.067-.4859-.1069-.722-5.2282-32.0829-33.4826-56.6287-67.6826-56.6287-.0623,0-.1203,.0133-.1828,.0133-.0713,0-.1339-.0133-.2005-.0133-.2718,0-.5171,.049-.7846,.049-1.2838,.0044-2.5852,.0847-3.8821,.1827-.098,.0133-.2094,.0223-.312,.0356-1.4933,.1114-2.9729,.2943-4.4349,.5037-.5481,.0847-1.11,.1069-1.6448,.1871-.2274,.0401-.4546,.0268-.6731,.0713-.1026,.0223-.2051,.049-.2941,.0624-.2987,.0713-.5928,.156-.8915,.205-.5215,.1114-1.0384,.2228-1.5645,.3521-31.1381,6.5253-54.5162,33.5538-54.5162,66.0423,0,4.8628,.6954,9.592,1.7161,14.1739l.7087,2.9596c.1249,.4769,.2094,.9673,.2094,1.5154,0,3.071-2.3801,5.8121-5.5269,5.4646l-2.6029-.37L1.1713,106.8836l-.4769,3.218c-4.8227,30.3312,15.9924,58.9688,46.3549,63.7692l18.796,2.9596c-3.5211,29.5646,16.9596,56.9631,46.5911,61.6209l18.8006,2.9774c-3.5123,29.5601,16.9419,56.9541,46.6088,61.6431l.8113,.1159-123.2774,114.2291s.0003,.0003,.0003,.0003Z"></path>
  <path id="c" class="g" d="M511.2047,104.2406l-48.1111-11.3302c2.0101,6.1377,3.3562,12.5826,3.7709,19.3309,.5705,9.6231-.8781,19.4601-3.6639,28.1696v.1606c-.0713,.2764-.1559,.5348-.1559,.8291,0,1.0474,.5928,1.9344,1.453,2.4248l.0446,.1114s.0536,.0133,.1515,.0401c.3654,.1648,.7623,.2764,1.1945,.2764,.5971,0,1.101-.2407,1.5555-.5348,.0936-.0133,.1559-.0356,.1559-.0356l1.11-.9093,.9851-.7355,41.9467-36.032c.2807-.2406,.4233-.6374,.3297-1.0162-.0936-.361-.4013-.6507-.7667-.7488v-.0005Z"></path>
  <g id="d">
    <path id="e" class="g" d="M64.0982,0l-1.5555,2.6787c-14.7623,25.2233-6.2222,57.7831,19.019,72.5678l15.6269,9.1239c-3.5836,6.6948-5.5448,13.8485-6.0574,21.0335l209.4795,32.912L64.0982,0Z"></path>
  </g>
</svg>
